<?xml version="1.0" encoding="utf-8"?>
<!-- Generator: Adobe Illustrator 26.5.0, SVG Export Plug-In . SVG Version: 6.00 Build 0)  -->
<svg version="1.1" id="Calque_1" xmlns="http://www.w3.org/2000/svg" xmlns:xlink="http://www.w3.org/1999/xlink" x="0px" y="0px"
	 viewBox="0 0 18.5 18.5" style="enable-background:new 0 0 18.5 18.5;" xml:space="preserve">
<style type="text/css">
	.st0{fill:#00AE6C;}
	.st1{fill:#FFFFFF;}
	.st2{fill-rule:evenodd;clip-rule:evenodd;fill:#FFFFFF;}
</style>
<circle class="st0" cx="9.2" cy="9.2" r="9.2"/>
<g>
	<path class="st1" d="M4,14.5l0.8-2.8C4.3,10.9,4.1,10,4.1,9.2C4.1,6.3,6.4,4,9.3,4c2.9,0,5.2,2.3,5.2,5.2c0,2.9-2.3,5.2-5.2,5.2
		c-0.9,0-1.7-0.2-2.5-0.6L4,14.5z M7,12.7l0.2,0.1c0.7,0.4,1.4,0.6,2.1,0.6c2.3,0,4.2-1.9,4.2-4.2c0-2.3-1.9-4.2-4.2-4.2
		C7,5,5.1,6.8,5.1,9.2c0,0.8,0.2,1.5,0.6,2.2l0.1,0.2l-0.4,1.6L7,12.7z"/>
	<path class="st2" d="M11.2,9.9c-0.2-0.1-0.5-0.3-0.7-0.2c-0.2,0.1-0.3,0.4-0.4,0.5c-0.1,0.1-0.1,0.1-0.2,0.1
		C9.1,10,8.5,9.5,8.1,8.9C8,8.8,8.1,8.7,8.1,8.6c0.1-0.1,0.3-0.3,0.3-0.5c0-0.2-0.1-0.4-0.1-0.6C8.2,7.3,8.1,7,7.9,6.9
		C7.7,6.7,7.4,6.8,7.2,7C6.9,7.2,6.8,7.6,6.8,8c0,0.1,0,0.2,0,0.3C6.9,8.6,7,8.8,7.1,9c0.1,0.2,0.2,0.3,0.3,0.5
		c0.4,0.5,0.9,1,1.4,1.3c0.3,0.2,0.6,0.3,0.9,0.4c0.3,0.1,0.7,0.2,1,0.2c0.4-0.1,0.8-0.3,0.9-0.7c0-0.1,0.1-0.2,0-0.4
		C11.7,10.2,11.4,10,11.2,9.9z"/>
</g>
</svg>
