<?xml version="1.0" encoding="utf-8"?>
<!-- Generator: Adobe Illustrator 26.5.0, SVG Export Plug-In . SVG Version: 6.00 Build 0)  -->
<svg version="1.1" id="Calque_1" xmlns="http://www.w3.org/2000/svg" xmlns:xlink="http://www.w3.org/1999/xlink" x="0px" y="0px"
	 viewBox="0 0 18.5 18.5" style="enable-background:new 0 0 18.5 18.5;" xml:space="preserve">
<style type="text/css">
	.st0{fill:#00AE6C;}
	.st1{fill:#FFFFFF;}
	.st2{fill-rule:evenodd;clip-rule:evenodd;fill:#FFFFFF;}
</style>
<circle class="st0" cx="9.2" cy="9.2" r="9.2"/>
<g>
	<path class="st1" d="M4.8,5.3l3.6,4.1c0.2,0.2,0.5,0.4,0.8,0.4c0.3,0,0.6-0.1,0.8-0.4l3.6-4.1c0,0,0.1-0.1,0.1-0.1
		c-0.2-0.1-0.3-0.1-0.5-0.1h-8C5.1,5.2,4.9,5.2,4.8,5.3C4.8,5.3,4.8,5.3,4.8,5.3z"/>
	<path class="st1" d="M14.3,5.8c0,0,0,0.1-0.1,0.1L10.6,10c-0.4,0.4-0.9,0.6-1.4,0.6c-0.5,0-1-0.2-1.4-0.6L4.2,5.8c0,0,0,0,0,0
		C4.1,6,4,6.2,4,6.4V12c0,0.7,0.6,1.2,1.2,1.2h8c0.7,0,1.2-0.6,1.2-1.2V6.4C14.5,6.2,14.4,6,14.3,5.8z"/>
</g>
</svg>
